<svg width="471" height="321" viewBox="0 0 471 321" fill="none" xmlns="http://www.w3.org/2000/svg">
<g id="undraw_Designer_by46 1">
<g id="Comp-guy">
<path id="Vector" d="M471 298.5H0V314.468H471V298.5Z" fill="#E0E0E0"/>
<path id="Vector_2" d="M237.251 252.98C260.958 252.98 299.706 245.913 318.121 233.772C316.127 222.87 311.537 205.227 307.188 189.439C301.649 169.332 266.69 155.392 245.835 155.392H225.739C204.82 155.392 169.81 169.412 164.341 189.606C160.173 204.994 155.724 221.894 153.51 231.817C172.485 245.15 212.299 252.98 237.251 252.98Z" fill="#0D1E2D"/>
<path id="Vector_3" d="M319.011 185.275H151.989C144.803 185.275 138.978 191.101 138.978 198.287V285.488C138.978 292.674 144.803 298.5 151.989 298.5H319.011C326.197 298.5 332.022 292.674 332.022 285.488V198.287C332.022 191.101 326.197 185.275 319.011 185.275Z" fill="#535461"/>
<path id="Vector_4" d="M235.5 248.42C239.107 248.42 242.032 245.495 242.032 241.888C242.032 238.28 239.107 235.355 235.5 235.355C231.893 235.355 228.968 238.28 228.968 241.888C228.968 245.495 231.893 248.42 235.5 248.42Z" fill="white"/>
<path id="Vector_5" d="M451.042 314.468H19.9576V321H451.042V314.468Z" fill="#E0E0E0"/>
<path id="Vector_6" opacity="0.1" d="M451.042 314.468H19.9576V316.645H451.042V314.468Z" fill="black"/>
</g>
<g id="Leaf">
<path id="Vector_7" d="M70.7072 260.781C67.3208 273.678 55.4544 281.738 55.4544 281.738C55.4544 281.738 49.0785 268.887 52.4649 255.99C55.8513 243.093 67.7177 235.033 67.7177 235.033C67.7177 235.033 74.0936 247.883 70.7072 260.781Z" fill="#3F3D56"/>
<path id="Vector_8" d="M65.5708 258.052C56.086 267.424 55.0248 281.73 55.0248 281.73C55.0248 281.73 69.3416 280.842 78.8264 271.471C88.3113 262.099 89.3724 247.793 89.3724 247.793C89.3724 247.793 75.0556 248.681 65.5708 258.052Z" fill="#0D1E2D"/>
<path id="Vector_9" d="M77.465 277.961H40.364C36.2945 277.961 32.9955 281.261 32.9955 285.331V292.653C32.9955 296.723 36.2945 300.022 40.364 300.022H77.465C81.5345 300.022 84.8335 296.723 84.8335 292.653V285.331C84.8335 281.261 81.5345 277.961 77.465 277.961Z" fill="#0D1E2D"/>
</g>
<g id="head">
<path id="Vector_10" d="M236.027 136.126C267.152 136.126 292.383 110.891 292.383 79.7636C292.383 48.6356 267.152 23.4015 236.027 23.4015C204.902 23.4015 179.67 48.6356 179.67 79.7636C179.67 110.891 204.902 136.126 236.027 136.126Z" fill="#72351C"/>
<path id="Vector_11" d="M223.017 125.371H248.769C250.142 125.371 251.46 125.916 252.431 126.888C253.403 127.859 253.948 129.177 253.948 130.551V154.262C253.948 159.051 252.046 163.644 248.66 167.03C245.274 170.417 240.682 172.319 235.893 172.319H235.893C231.104 172.319 226.512 170.417 223.126 167.03C219.74 163.644 217.838 159.051 217.838 154.262V130.551C217.838 129.177 218.383 127.859 219.355 126.888C220.326 125.916 221.643 125.371 223.017 125.371Z" fill="#FDA57D"/>
<path id="Vector_12" d="M236.027 142.763C264.612 142.763 287.785 119.587 287.785 90.9991C287.785 62.4108 264.612 39.2353 236.027 39.2353C207.441 39.2353 184.268 62.4108 184.268 90.9991C184.268 119.587 207.441 142.763 236.027 142.763Z" fill="#FDA57D"/>
<path id="Vector_13" d="M199.159 43.2632C199.159 43.2632 220.972 87.545 282.505 61.8225L268.18 39.356L242.785 30.2391L199.159 43.2632Z" fill="#72351C"/>
<path id="Vector_14" d="M198.965 40.2715C200.435 35.7178 202.977 31.5835 206.376 28.2158C216.559 18.1511 233.247 16.0261 241.808 4.55008C243.864 7.73466 242.273 12.6324 238.739 14.0013C246.93 13.9482 256.447 13.2302 261.083 6.47609C262.229 9.14464 262.594 12.0838 262.136 14.9518C261.678 17.8198 260.416 20.499 258.495 22.6777C265.765 23.0077 273.522 27.942 273.992 35.205C274.305 40.0436 271.271 44.6248 267.296 47.3997C263.32 50.1746 258.51 51.4485 253.775 52.4925C239.955 55.5399 189.947 68.3129 198.965 40.2715Z" fill="#72351C"/>
<path id="Vector_15" d="M287.784 91.4522H286.412L259.715 115.221C233.995 103.174 215.112 115.221 215.112 115.221L187.113 92.429L184.29 92.7838C184.672 106.369 190.382 119.26 200.187 128.671C209.991 138.082 223.104 143.259 236.692 143.084C250.281 142.909 263.256 137.397 272.815 127.736C282.374 118.076 287.751 105.043 287.784 91.4522ZM235.948 124.338C225.879 124.338 217.716 122.297 217.716 119.78C217.716 117.262 225.879 115.221 235.948 115.221C246.017 115.221 254.18 117.262 254.18 119.78C254.18 122.297 246.017 124.338 235.948 124.338Z" fill="#72351C"/>
<path id="Vector_16" d="M184.247 99.9784C186.907 99.9784 189.062 95.9361 189.062 90.9498C189.062 85.9635 186.907 81.9212 184.247 81.9212C181.588 81.9212 179.433 85.9635 179.433 90.9498C179.433 95.9361 181.588 99.9784 184.247 99.9784Z" fill="#FDA57D"/>
<path id="Vector_17" d="M287.779 99.9784C290.438 99.9784 292.593 95.9361 292.593 90.9498C292.593 85.9635 290.438 81.9212 287.779 81.9212C285.119 81.9212 282.964 85.9635 282.964 90.9498C282.964 95.9361 285.119 99.9784 287.779 99.9784Z" fill="#FDA57D"/>
</g>
<g id="cup">
<path id="Vector_18" d="M403.773 230.8C403.161 230.904 402.471 231.07 402.171 231.613C401.695 232.476 402.557 233.449 403.344 234.042C404.799 235.138 406.331 236.214 407.32 237.743C408.308 239.272 408.619 241.406 407.538 242.871C406.127 244.785 402.761 245.196 402.436 247.551C402.226 249.063 403.533 250.353 404.858 251.112C408.126 252.984 412.34 253.484 414.707 256.414C415.687 254.4 417.877 253.235 420.061 252.738C422.245 252.241 424.513 252.278 426.727 251.941C427.442 251.832 428.247 251.614 428.567 250.965C429.185 249.709 427.422 248.202 428.03 246.941C428.494 245.982 429.855 246.056 430.849 245.672C432.467 245.046 433.135 242.963 432.675 241.289C432.216 239.616 430.918 238.308 429.554 237.236C425.877 234.346 421.455 232.647 416.983 231.424C414.903 230.856 412.462 229.964 410.301 229.878C408.216 229.795 405.837 230.447 403.773 230.8Z" fill="#EEEEEE"/>
<path id="Vector_19" d="M432.899 265.113C431.033 265.113 429.209 265.667 427.658 266.703C426.106 267.74 424.897 269.214 424.183 270.938C423.469 272.662 423.282 274.559 423.646 276.389C424.01 278.22 424.908 279.901 426.228 281.22C427.547 282.54 429.228 283.439 431.058 283.803C432.889 284.167 434.786 283.98 436.51 283.266C438.233 282.552 439.707 281.342 440.744 279.791C441.78 278.239 442.334 276.415 442.334 274.549C442.334 272.046 441.34 269.646 439.57 267.877C437.801 266.107 435.401 265.113 432.899 265.113ZM432.899 280.355C431.751 280.355 430.628 280.015 429.674 279.377C428.719 278.738 427.975 277.832 427.535 276.771C427.096 275.71 426.981 274.542 427.205 273.416C427.429 272.29 427.982 271.255 428.794 270.443C429.606 269.631 430.64 269.078 431.766 268.854C432.893 268.63 434.06 268.745 435.121 269.184C436.182 269.624 437.089 270.368 437.726 271.323C438.364 272.278 438.705 273.4 438.705 274.549C438.705 276.089 438.093 277.565 437.004 278.654C435.916 279.743 434.439 280.355 432.899 280.355Z" fill="#0D1E2D"/>
<path id="Vector_20" d="M396.612 257.855H432.899V293.772C432.899 295.026 432.401 296.229 431.514 297.115C430.628 298.002 429.426 298.5 428.172 298.5H401.34C400.086 298.5 398.884 298.002 397.997 297.115C397.111 296.229 396.612 295.026 396.612 293.772V257.855Z" fill="#0D1E2D"/>
</g>
</g>
</svg>
